<?xml version="1.0" encoding="utf-8"?>
<!-- Generator: Adobe Illustrator 15.0.0, SVG Export Plug-In . SVG Version: 6.00 Build 0)  -->
<!DOCTYPE svg PUBLIC "-//W3C//DTD SVG 1.1//EN" "http://www.w3.org/Graphics/SVG/1.1/DTD/svg11.dtd">
<svg version="1.1" id="Layer_1" xmlns="http://www.w3.org/2000/svg" xmlns:xlink="http://www.w3.org/1999/xlink" x="0px" y="0px"
	 width="42.75px" height="343.791px" viewBox="0 0 42.75 343.791" enable-background="new 0 0 42.75 343.791" xml:space="preserve">
<path fill="#ECECEC" d="M31.334,32.958v-12.5h4.871c0,0-13.54-11.437-15.124-11.437c-0.478,0-2.047,1.043-4,2.497V8.271H12.85v6.735
	c-3.901,3.082-6.893,5.452-6.893,5.452h4.871v12.5H31.334z"/>
<path fill="#ECECEC" d="M35.362,44.346l-1.013,2.446l-2.446,1.013l-2.445-1.013l-1.014-2.446l1.014-2.446l2.445-1.014v-1.418
	c-3.918,0-7.095,0.959-7.095,4.877c0,1.067,0.243,2.074,0.664,2.982L13.785,59.016c-0.907-0.421-1.915-0.664-2.981-0.664
	c-3.918,0-4.878,3.176-4.878,7.095h1.419L8.357,63l2.446-1.013L13.249,63l1.014,2.446l-1.014,2.446l-2.445,1.014v1.418
	c3.918,0,7.095-0.959,7.095-4.877c0-1.067-0.243-2.075-0.664-2.982l11.687-11.687c0.908,0.421,1.916,0.664,2.982,0.664
	c3.918,0,4.878-3.176,4.878-7.095H35.362z"/>
<g>
	<path fill="#ECECEC" d="M21.306,85.987c2.122,0,3.215-1.62,3.215-3.618c0-1.999-1.093-3.619-3.215-3.619s-3.215,1.62-3.215,3.619
		C18.091,84.367,19.184,85.987,21.306,85.987z"/>
	<path fill="#ECECEC" d="M25.356,87.191c-0.56-1.438-1.839-1.186-4.051-1.186s-3.49-0.253-4.051,1.186
		c-0.845,0.041-2.642,0.787-2.642,5.117c0,4.459,0.656,6.301,1.465,6.301s0.836-1.842,0.836-6.301c0-0.593,0.022-1.114,0.06-1.579
		c0.206,1.578,0.953,3.282,1.436,4.815c0.244,0.771-0.155,1.496-0.485,2.143c-0.13,0.117-0.223,0.33-0.286,0.631
		c-0.052,0.151-0.071,0.295-0.069,0.434c-0.159,1.416,0.023,3.971,0.023,6.898c0,4.46,0.825,5.121,1.842,5.121
		s1.214-0.661,1.214-5.121c0-2.058,0.031-3.932-0.223-5.357c0.347,0.059,0.659,0.09,0.881,0.09c0.228,0,0.539-0.034,0.885-0.095
		c-0.263,1.427-0.207,3.302-0.207,5.362c0,4.46,0.824,5.121,1.842,5.121c1.017,0,1.214-0.661,1.214-5.121
		c0-2.941,0.186-5.508,0.021-6.92c0.019-0.182-0.02-0.375-0.106-0.58c-0.055-0.195-0.126-0.342-0.217-0.438
		c-0.348-0.63-0.8-1.338-0.559-2.091c0.497-1.551,1.255-3.284,1.462-4.887c0.035,0.465,0.058,0.983,0.058,1.574
		c0,4.459,0.028,6.301,0.837,6.301s1.464-1.842,1.464-6.301C27.998,87.979,26.202,87.232,25.356,87.191z"/>
</g>
<path fill="#ECECEC" d="M21.718,119.757c-9.27,0-15.324,3.649-15.324,10c0,2.507,0.956,4.585,2.668,6.192l-3.492,6.566l7.418-4.18
	c2.39,0.929,5.342,1.421,8.729,1.421c9.27,0,15.324-3.649,15.324-10S30.987,119.757,21.718,119.757z"/>
<path fill="#9C9083" d="M31.109,181.959v-12.501h4.871c0,0-13.54-11.437-15.124-11.437c-0.478,0-2.047,1.043-4,2.497v-3.247h-4.231
	v6.734c-3.901,3.082-6.893,5.452-6.893,5.452h4.871v12.501H31.109z"/>
<path fill="#9C9083" d="M35.138,193.346l-1.013,2.447l-2.446,1.013l-2.445-1.013l-1.014-2.447l1.014-2.445l2.445-1.014v-1.418
	c-3.918,0-7.095,0.959-7.095,4.877c0,1.067,0.243,2.074,0.664,2.982l-11.688,11.688c-0.907-0.422-1.915-0.664-2.981-0.664
	c-3.918,0-4.878,3.177-4.878,7.096H7.12L8.133,212l2.446-1.013L13.024,212l1.014,2.447l-1.014,2.445l-2.445,1.014v1.418
	c3.918,0,7.095-0.959,7.095-4.877c0-1.067-0.243-2.075-0.664-2.982l11.687-11.688c0.908,0.422,1.916,0.664,2.982,0.664
	c3.918,0,4.878-3.177,4.878-7.096H35.138z"/>
<g>
	<path fill="#9C9083" d="M21.081,234.987c2.122,0,3.215-1.62,3.215-3.618c0-1.999-1.093-3.619-3.215-3.619s-3.215,1.62-3.215,3.619
		C17.866,233.367,18.959,234.987,21.081,234.987z"/>
	<path fill="#9C9083" d="M25.132,236.191c-0.56-1.438-1.839-1.186-4.051-1.186s-3.49-0.253-4.051,1.186
		c-0.845,0.041-2.642,0.787-2.642,5.117c0,4.459,0.656,6.301,1.465,6.301s0.836-1.842,0.836-6.301c0-0.593,0.022-1.114,0.06-1.579
		c0.206,1.578,0.953,3.282,1.436,4.815c0.244,0.771-0.155,1.496-0.485,2.143c-0.13,0.117-0.223,0.33-0.286,0.631
		c-0.052,0.151-0.071,0.295-0.069,0.434c-0.159,1.416,0.023,3.971,0.023,6.898c0,4.46,0.825,5.121,1.842,5.121
		s1.214-0.661,1.214-5.121c0-2.058,0.031-3.932-0.223-5.357c0.347,0.059,0.659,0.09,0.881,0.09c0.228,0,0.539-0.034,0.885-0.095
		c-0.263,1.427-0.207,3.302-0.207,5.362c0,4.46,0.824,5.121,1.842,5.121c1.017,0,1.214-0.661,1.214-5.121
		c0-2.941,0.186-5.508,0.021-6.92c0.019-0.182-0.02-0.375-0.106-0.58c-0.055-0.195-0.126-0.342-0.217-0.438
		c-0.348-0.63-0.8-1.338-0.559-2.091c0.497-1.551,1.255-3.284,1.462-4.887c0.035,0.465,0.058,0.983,0.058,1.574
		c0,4.459,0.028,6.301,0.837,6.301s1.464-1.842,1.464-6.301C27.773,236.979,25.978,236.232,25.132,236.191z"/>
</g>
<path fill="#9C9083" d="M21.493,268.757c-9.27,0-15.324,3.649-15.324,10c0,2.507,0.956,4.585,2.668,6.192l-3.492,6.566l7.418-4.18
	c2.39,0.929,5.342,1.421,8.729,1.421c9.27,0,15.324-3.649,15.324-10S30.763,268.757,21.493,268.757z"/>
<polygon fill="#FFFFFF" points="1.663,304.939 21.089,324.365 1.663,343.791 "/>
</svg>
