<?xml version="1.0" encoding="utf-8"?>
<!-- Generator: Adobe Illustrator 15.0.0, SVG Export Plug-In . SVG Version: 6.00 Build 0)  -->
<!DOCTYPE svg PUBLIC "-//W3C//DTD SVG 1.1//EN" "http://www.w3.org/Graphics/SVG/1.1/DTD/svg11.dtd">
<svg version="1.1" id="Layer_1" xmlns="http://www.w3.org/2000/svg" xmlns:xlink="http://www.w3.org/1999/xlink" x="0px" y="0px"
	 width="191px" height="125px" viewBox="0 0 191 125" enable-background="new 0 0 191 125" xml:space="preserve">
<path fill="#27323A" d="M129.96,112.361c1.509,0,2.999-0.089,4.47-0.225l4.734-17.96l14.353,11.725
	c2.586-1.526,5.006-3.293,7.241-5.275l-6.721-17.271l18.541,1.055c1.18-2.705,2.102-5.549,2.75-8.498l-15.617-10.038l15.617-10.04
	c-0.648-2.946-1.57-5.785-2.75-8.49l-18.536,1.055l6.718-17.279c-2.234-1.982-4.654-3.747-7.243-5.272l-14.353,11.722l-4.734-17.958
	c-1.471-0.136-2.961-0.224-4.47-0.224s-2.999,0.088-4.469,0.224l-4.732,17.958l-14.355-11.722c-2.587,1.526-5.005,3.29-7.242,5.272
	l6.718,17.279l-18.535-1.055c-1.179,2.706-2.104,5.544-2.747,8.49l15.613,10.04L84.598,75.912c0.642,2.949,1.567,5.787,2.747,8.493
	l18.535-1.056l-6.718,17.276c2.234,1.982,4.655,3.749,7.242,5.275l14.355-11.725l4.732,17.96
	C126.961,112.272,128.451,112.361,129.96,112.361z M109.511,65.874c0-11.297,9.154-20.449,20.449-20.449s20.452,9.152,20.452,20.449
	c0,11.298-9.157,20.45-20.452,20.45S109.511,77.172,109.511,65.874z"/>
<path fill="#27323A" d="M54.98,88.658l1.301-4.924c3.639-0.548,7.083-1.675,10.229-3.312l3.91,3.19
	c2.093-1.229,4.054-2.656,5.859-4.265l-1.828-4.686c2.559-2.522,4.685-5.472,6.313-8.722l5.073,0.293
	c0.958-2.19,1.7-4.491,2.227-6.875l-4.275-2.75c0.282-1.748,0.476-3.536,0.476-5.372c0-1.828-0.194-3.622-0.476-5.372l4.275-2.75
	c-0.526-2.381-1.269-4.677-2.227-6.867l-5.073,0.293c-1.628-3.248-3.755-6.2-6.313-8.723l1.828-4.69
	c-1.806-1.601-3.766-3.03-5.859-4.265l-3.91,3.195c-3.146-1.642-6.59-2.761-10.229-3.309l-1.301-4.932
	c-1.191-0.108-2.393-0.183-3.617-0.183c-1.218,0-2.42,0.075-3.611,0.183l-1.307,4.932c-3.633,0.548-7.083,1.667-10.223,3.309
	l-3.91-3.195c-2.099,1.235-4.054,2.664-5.859,4.265l1.828,4.69c-2.564,2.522-4.686,5.475-6.313,8.723l-5.073-0.293
	c-0.958,2.19-1.7,4.486-2.226,6.867l4.275,2.75c-0.288,1.75-0.476,3.544-0.476,5.372c0,1.836,0.188,3.625,0.476,5.372l-4.275,2.75
	c0.526,2.384,1.268,4.68,2.226,6.87l5.073-0.287c1.628,3.245,3.749,6.199,6.313,8.714l-1.828,4.693
	c1.805,1.608,3.76,3.035,5.859,4.265l3.91-3.19c3.14,1.637,6.59,2.764,10.223,3.312l1.307,4.924
	c1.191,0.116,2.393,0.183,3.611,0.183C52.587,88.841,53.789,88.774,54.98,88.658z M30.308,51.237
	c0-11.625,9.426-21.053,21.056-21.053c11.636,0,21.062,9.429,21.062,21.053c0,11.633-9.426,21.059-21.062,21.059
	C39.733,72.296,30.308,62.87,30.308,51.237z"/>
</svg>
